<?xml version="1.0" encoding="utf-8"?>
<!-- Generator: Adobe Illustrator 21.0.2, SVG Export Plug-In . SVG Version: 6.00 Build 0)  -->
<svg version="1.1" id="Layer_1" xmlns="http://www.w3.org/2000/svg" xmlns:xlink="http://www.w3.org/1999/xlink" x="0px" y="0px"
	 viewBox="0 0 190 181" style="enable-background:new 0 0 190 181;" xml:space="preserve">
<style type="text/css">
	.st0{fill:#06A9E1;}
	.st1{fill:#FFFFFF;}
</style>
<g>
	<path class="st0" d="M2,172.9v-35.7h5.9V151c1-0.9,2-1.6,3.2-2.2c1.2-0.6,2.5-0.8,4.1-0.8c1.3,0,2.5,0.2,3.6,0.7
		c1,0.5,1.9,1.1,2.6,1.9c0.7,0.8,1.2,1.8,1.6,3c0.4,1.1,0.5,2.4,0.5,3.8v15.7h-5.9v-15.7c0-1.5-0.3-2.7-1-3.5
		c-0.7-0.8-1.7-1.2-3.1-1.2c-1,0-2,0.2-2.9,0.7c-0.9,0.5-1.7,1.1-2.5,1.9v17.8H2z"/>
	<path class="st0" d="M48.7,172.9H46c-0.6,0-1-0.1-1.3-0.3c-0.3-0.2-0.6-0.5-0.7-1l-0.5-1.8c-0.6,0.6-1.2,1.1-1.8,1.5
		c-0.6,0.4-1.2,0.8-1.9,1.1c-0.6,0.3-1.3,0.5-2,0.6c-0.7,0.1-1.5,0.2-2.4,0.2c-1,0-2-0.1-2.9-0.4c-0.9-0.3-1.6-0.7-2.3-1.3
		c-0.6-0.6-1.1-1.3-1.5-2.1c-0.4-0.8-0.5-1.8-0.5-2.9c0-0.9,0.2-1.9,0.7-2.8c0.5-0.9,1.3-1.7,2.4-2.5c1.1-0.7,2.7-1.3,4.5-1.8
		c1.9-0.5,4.2-0.7,7-0.7v-1.5c0-1.7-0.3-2.9-1-3.7c-0.7-0.8-1.7-1.2-3-1.2c-1,0-1.8,0.1-2.4,0.3c-0.6,0.2-1.2,0.5-1.7,0.8
		c-0.5,0.3-0.9,0.5-1.3,0.8c-0.4,0.2-0.8,0.3-1.3,0.3c-0.4,0-0.7-0.1-1-0.3c-0.3-0.2-0.5-0.5-0.7-0.8l-1.1-1.9
		c2.8-2.6,6.3-3.9,10.3-3.9c1.4,0,2.7,0.2,3.9,0.7c1.1,0.5,2.1,1.1,2.9,2c0.8,0.8,1.4,1.8,1.8,3c0.4,1.2,0.6,2.5,0.6,3.8V172.9z
		 M37.1,169.2c0.6,0,1.2-0.1,1.7-0.2c0.5-0.1,1-0.3,1.5-0.5c0.5-0.2,0.9-0.5,1.3-0.8c0.4-0.3,0.9-0.7,1.3-1.1v-4.1
		c-1.7,0-3.2,0.1-4.3,0.3c-1.2,0.2-2.1,0.5-2.8,0.8c-0.7,0.3-1.2,0.7-1.5,1.2c-0.3,0.5-0.4,0.9-0.4,1.5c0,1,0.3,1.8,0.9,2.3
		C35.3,169,36.1,169.2,37.1,169.2z"/>
	<path class="st0" d="M51.1,148.3h4.7c0.4,0,0.8,0.1,1.1,0.3c0.3,0.2,0.5,0.5,0.6,0.8l3.5,13.2c0.2,0.7,0.3,1.4,0.5,2.1
		c0.1,0.7,0.2,1.4,0.3,2.1c0.2-0.7,0.4-1.4,0.6-2.1c0.2-0.7,0.4-1.4,0.6-2.1l4.1-13.2c0.1-0.3,0.3-0.6,0.6-0.8
		c0.3-0.2,0.6-0.3,1-0.3h2.6c0.4,0,0.8,0.1,1.1,0.3c0.3,0.2,0.5,0.5,0.6,0.8l4,13.5c0.2,0.7,0.4,1.4,0.6,2c0.2,0.6,0.3,1.3,0.5,2
		c0.1-0.7,0.2-1.4,0.4-2.1c0.1-0.7,0.3-1.4,0.5-2.1l3.7-13.2c0.1-0.3,0.3-0.6,0.6-0.8c0.3-0.2,0.7-0.3,1.1-0.3h4.5l-7.8,24.7h-4.8
		c-0.5,0-0.9-0.4-1.1-1.1l-4.4-14.3c-0.1-0.5-0.3-0.9-0.4-1.4c-0.1-0.5-0.2-0.9-0.3-1.4c-0.1,0.5-0.2,1-0.3,1.4
		c-0.1,0.5-0.2,0.9-0.4,1.4l-4.5,14.2c-0.2,0.7-0.7,1.1-1.3,1.1h-4.5L51.1,148.3z"/>
	<path class="st0" d="M98.1,137.2v20.5h1.1c0.4,0,0.7-0.1,0.9-0.2c0.2-0.1,0.5-0.3,0.7-0.6l6.1-7.6c0.3-0.3,0.6-0.6,0.9-0.8
		c0.3-0.2,0.7-0.3,1.2-0.3h5.4l-7.7,9.2c-0.3,0.3-0.6,0.6-0.8,0.9s-0.6,0.5-0.9,0.7c0.3,0.2,0.6,0.5,0.9,0.8c0.3,0.3,0.5,0.7,0.8,1
		l8.2,12h-5.4c-0.5,0-0.9-0.1-1.2-0.2c-0.3-0.2-0.6-0.4-0.9-0.8l-6.3-9.3c-0.2-0.4-0.5-0.6-0.7-0.7c-0.2-0.1-0.6-0.2-1.1-0.2h-1.3
		v11.3h-5.9v-35.7H98.1z"/>
	<path class="st0" d="M127.3,147.9c1.6,0,3,0.2,4.3,0.7c1.3,0.5,2.4,1.2,3.4,2.2c0.9,1,1.7,2.1,2.2,3.5c0.5,1.4,0.8,3,0.8,4.7
		c0,0.4,0,0.8-0.1,1.1c0,0.3-0.1,0.5-0.2,0.7c-0.1,0.2-0.2,0.3-0.4,0.4c-0.2,0.1-0.4,0.1-0.7,0.1h-15.2c0.2,2.5,0.9,4.4,2,5.6
		c1.2,1.2,2.8,1.8,4.7,1.8c1,0,1.8-0.1,2.5-0.3c0.7-0.2,1.3-0.5,1.8-0.7c0.5-0.3,1-0.5,1.4-0.7c0.4-0.2,0.8-0.3,1.1-0.3
		c0.2,0,0.4,0,0.6,0.1c0.2,0.1,0.3,0.2,0.5,0.4l1.7,2.2c-0.7,0.8-1.4,1.4-2.2,1.9c-0.8,0.5-1.7,0.9-2.6,1.2
		c-0.9,0.3-1.8,0.5-2.7,0.7c-0.9,0.1-1.8,0.2-2.7,0.2c-1.7,0-3.3-0.3-4.8-0.9c-1.5-0.6-2.8-1.4-3.8-2.5c-1.1-1.1-1.9-2.5-2.6-4.1
		c-0.6-1.6-0.9-3.5-0.9-5.7c0-1.7,0.3-3.3,0.8-4.7c0.5-1.5,1.3-2.8,2.3-3.9c1-1.1,2.3-2,3.7-2.6
		C123.8,148.2,125.5,147.9,127.3,147.9z M127.5,152.2c-1.7,0-3.1,0.5-4.1,1.5c-1,1-1.6,2.4-1.9,4.2h11.2c0-0.8-0.1-1.5-0.3-2.2
		c-0.2-0.7-0.5-1.3-1-1.8c-0.4-0.5-1-0.9-1.6-1.2C129.1,152.3,128.3,152.2,127.5,152.2z"/>
	<path class="st0" d="M150.8,179.7c-0.2,0.4-0.4,0.7-0.7,0.9c-0.3,0.2-0.7,0.3-1.3,0.3h-4.4l4.6-9.9l-10-22.8h5.2
		c0.5,0,0.8,0.1,1.1,0.3c0.3,0.2,0.4,0.5,0.6,0.8l5.3,12.8c0.2,0.4,0.3,0.8,0.5,1.3c0.1,0.4,0.2,0.9,0.3,1.3
		c0.1-0.5,0.3-0.9,0.4-1.3c0.2-0.4,0.3-0.9,0.5-1.3l5-12.8c0.1-0.3,0.3-0.6,0.6-0.8c0.3-0.2,0.6-0.3,1-0.3h4.8L150.8,179.7z"/>
	<path class="st0" d="M177.1,147.9c1.6,0,3,0.2,4.3,0.7c1.3,0.5,2.4,1.2,3.4,2.2c0.9,1,1.7,2.1,2.2,3.5c0.5,1.4,0.8,3,0.8,4.7
		c0,0.4,0,0.8-0.1,1.1c0,0.3-0.1,0.5-0.2,0.7c-0.1,0.2-0.2,0.3-0.4,0.4c-0.2,0.1-0.4,0.1-0.7,0.1h-15.2c0.2,2.5,0.9,4.4,2,5.6
		c1.2,1.2,2.8,1.8,4.7,1.8c1,0,1.8-0.1,2.5-0.3c0.7-0.2,1.3-0.5,1.8-0.7c0.5-0.3,1-0.5,1.4-0.7c0.4-0.2,0.8-0.3,1.1-0.3
		c0.2,0,0.4,0,0.6,0.1c0.2,0.1,0.3,0.2,0.5,0.4l1.7,2.2c-0.7,0.8-1.4,1.4-2.2,1.9c-0.8,0.5-1.7,0.9-2.6,1.2s-1.8,0.5-2.7,0.7
		c-0.9,0.1-1.8,0.2-2.7,0.2c-1.7,0-3.3-0.3-4.8-0.9c-1.5-0.6-2.8-1.4-3.8-2.5c-1.1-1.1-1.9-2.5-2.6-4.1c-0.6-1.6-0.9-3.5-0.9-5.7
		c0-1.7,0.3-3.3,0.8-4.7c0.5-1.5,1.3-2.8,2.3-3.9c1-1.1,2.3-2,3.7-2.6C173.6,148.2,175.3,147.9,177.1,147.9z M177.2,152.2
		c-1.7,0-3.1,0.5-4.1,1.5c-1,1-1.6,2.4-1.9,4.2h11.2c0-0.8-0.1-1.5-0.3-2.2c-0.2-0.7-0.5-1.3-1-1.8s-1-0.9-1.6-1.2
		C178.9,152.3,178.1,152.2,177.2,152.2z"/>
</g>
<path d="M108.3,36.5c0,0-0.7,5.7-3.7,8.2c-3,2.5-9.5,8.7-18,7c0,0,1.4-6.4,19.5-18.9c0,0,1.7,0.3,1.7,1.6c0,0,15.1-13.8,35.5-11.9
	c3.2,3.8,6,7.9,8.3,12.3c-6.4-1.8-23.1-4.5-41.6,8.6c0,0,4.2-8.5,12.9-13.9C122.9,29.5,116.8,29.3,108.3,36.5z M142.7,107.1
	c-0.4-44.4-20.8-47-31.2-47.1c-10.8-0.1-21.6,4-25.3,6c-3.7,2-0.3,2.7-0.3,2.7C63.4,85.5,61,99.5,61,99.5
	c-17.4-17-6.6-40.5-6.6-40.5c-22.5,29.9,8.8,51.3,8.8,51.3c12.1-41.7,39.8-43.8,44.4-44.4c4.6-0.6,22.6,0.4,24.8,20.4
	c1.5,13.5-1.4,26-3.5,32.7c-3,1.9-6.1,3.6-9.4,5c10.1-19.4,5.7-35.5,5.7-35.5c0.9,20-16.5,35.1-23.5,40.2c-2.5,0.3-5,0.4-7.6,0.4
	c-0.2,0-0.4,0-0.6,0c17.6-10.4,23.7-28.2,23.7-28.2c-15,21.5-35.3,24.2-46.1,24c-24.3-9.3-41.6-32.8-41.6-60.4
	c0-35.7,28.9-64.6,64.6-64.6c3.5,0,7,0.3,10.3,0.8c-8.9,3.2-38.8,16-51.7,49.4c0,0-1.4,4.2,0.8,4.7c2.2,0.5,6.6,1.1,6.6,1.1
	s-3.2-2.3-2.1-5.1c1-2.7,17.5-36.3,60.3-46.2c6.7,2.7,12.8,6.5,18.2,11.2c-4.9,0.5-13.4,2.9-25.2,12.2c0,0-0.9-0.3-0.9-1.9
	c0-1.5-0.3-3.5-2.1-4.3l-18,19.3c0,0,3.4-10.2,16.7-22.2c0,0-14.9,6.8-21.2,18.6c-6.3,11.8-7.9,14.9-17.9,18c0,0,8.8,1.7,16-1.8
	c0,0,6.8,3.5,15.3-0.5c7.6-3.6,30-20.6,56.1-9.6c2.2,6.5,3.5,13.6,3.5,20.9c0,2.2-0.1,4.4-0.3,6.5c-4.2-4.1-11.1-9.5-19.2-9.9
	c0,0,12.8,4.9,17.1,21.2C153.6,91.6,148.9,100,142.7,107.1z"/>
<path class="st1" d="M56.8,68.6c0,0,4.1-6.3,5.6-6.3c1.5,0-1.8-3.4-1.8-3.4S55.6,63.8,56.8,68.6z"/>
<g>
</g>
<g>
</g>
<g>
</g>
<g>
</g>
<g>
</g>
<g>
</g>
<g>
</g>
<g>
</g>
<g>
</g>
<g>
</g>
<g>
</g>
<g>
</g>
<g>
</g>
<g>
</g>
<g>
</g>
</svg>
